<?xml version="1.0" encoding="utf-8"?>
<!-- Generator: Adobe Illustrator 25.4.1, SVG Export Plug-In . SVG Version: 6.00 Build 0)  -->
<svg version="1.1" id="Layer_1" xmlns="http://www.w3.org/2000/svg" xmlns:xlink="http://www.w3.org/1999/xlink" x="0px" y="0px"
	 viewBox="0 0 98.7 27" style="enable-background:new 0 0 98.7 27;" xml:space="preserve">
<style type="text/css">
	.st0{fill:#030204;}
	.st1{fill:#E7E7E7;}
	.st2{fill:#08B7FD;}
	.st3{fill:#E86DFE;}
	.st4{fill:#E86DFD;}
	.st5{fill:#3F3F3F;}
	.st6{fill:#ACACAC;}
	.st7{fill:#6D6D6D;}
	.st8{fill:#CACACA;}
	.st9{fill:#151515;}
	.st10{fill:#2B2B2B;}
	.st11{fill:#FFFFFF;}
</style>
<g>
	<path class="st0" d="M19.7,13.8c0,0.1-0.1,0.2-0.2,0.2c-1.5,0.9-3,1.8-4.5,2.7c-0.3,0.2-0.7,0.4-1,0.6c-0.1,0.1-0.2,0.1-0.3,0
		c-0.2-0.1-0.3-0.1-0.5,0c-0.2,0.2-0.3,0.1-0.5,0c0,0,0,0,0,0c0,0.3-0.1,0.4-0.4,0.5c-1.1,0.7-2.3,1.3-3.4,2
		c-0.6,0.4-1.3,0.8-1.9,1.1c-0.1,0-0.1,0.1-0.2,0c-0.1-0.1-0.3-0.2-0.4-0.2c-0.1,0-0.2,0.1-0.3,0.2c0,0-0.1,0-0.1,0.1
		c0,0-0.1,0-0.1,0C5.8,21,5.7,21,5.6,20.9C4.1,20,2.5,19.1,1,18.2c-0.3-0.2-0.7-0.4-1-0.6c0-0.1,0-0.2,0-0.3c0-0.1,0.1-0.2,0.2-0.2
		c1.5-0.9,3-1.8,4.5-2.7c0.3-0.2,0.6-0.4,1-0.6c0.1-0.1,0.2-0.1,0.3,0c0.1,0.1,0.2,0.1,0.3,0.1c0.1,0,0.2-0.1,0.3-0.2
		c0.1,0,0.1-0.1,0.2-0.1c-0.1,0-0.2-0.1-0.2-0.1c-0.1,0-0.1-0.1-0.1-0.2c0-0.8,0-1.5,0-2.3c0-1.4,0-2.8,0-4.3c0-0.1,0-0.2,0.1-0.3
		c0.1,0,0.2-0.2,0.3-0.1c0,0,0-0.1,0-0.1c0-0.1,0-0.2,0.1-0.2C8.2,5.4,9.4,4.7,10.6,4c0.7-0.4,1.3-0.8,2-1.2c0.1-0.1,0.2-0.1,0.3,0
		c0.3,0.1,0.4,0.2,0.4,0.5c0,0.3,0,0.5,0,0.8c0,0.3,0,0.5,0,0.8c0,0.3,0,0.5,0,0.8c0,0.3,0,0.7,0,1c0,0.4,0,0.8,0,1.2
		c0,0.3,0,0.5,0,0.8c0,0.1,0,0.3,0,0.4c0,0.2,0,0.4,0,0.6c0,0.1,0,0.2-0.1,0.2C13,9.9,13,10,12.9,10c0.3,0.2,0.5,0.2,0.7,0
		c-0.1,0-0.2-0.1-0.2-0.1c-0.1,0-0.1-0.1-0.1-0.2c0-0.2,0-0.4,0-0.6c0-0.1,0-0.3,0-0.4c0-0.3,0-0.5,0-0.8c0-0.4,0-0.8,0-1.2
		c0-0.3,0-0.7,0-1c0-0.3,0-0.5,0-0.8c0-0.3,0-0.5,0-0.8c0-0.3,0-0.5,0-0.8c-0.1-0.3,0.1-0.5,0.3-0.6c0,0,0.1,0,0.1,0
		c0,0,0.1,0,0.1,0c0,0,0,0,0,0C14.8,3.4,15.9,4,17,4.6c0.8,0.5,1.6,1,2.5,1.4c0,0,0.1,0,0.1,0.1c0,0.1,0,0.3,0,0.4
		c0,0.1-0.1,0.1-0.1,0.1C18.9,7,18.5,7.3,18,7.6c-0.9,0.5-1.8,1.1-2.8,1.6c-0.5,0.3-0.9,0.5-1.4,0.8c0,0,0.1,0,0.1,0.1
		c0.5,0.3,0.9,0.5,1.4,0.8c1.3,0.8,2.7,1.6,4,2.4c0.1,0.1,0.2,0.1,0.3,0.2C19.7,13.6,19.7,13.7,19.7,13.8z M6.3,19.9
		c0,0.3,0,0.5,0,0.8c0,0,0,0,0,0C6.4,20.4,6.4,20.1,6.3,19.9c0-0.3,0-0.5,0-0.8c0-1.1,0-2.3,0-3.4c0-0.3,0-0.5,0-0.8
		c0-0.3,0-0.5,0-0.8c0,0,0,0,0,0c0,0.3,0,0.5,0,0.8c0,0.3,0,0.5,0,0.8c0,1.1,0,2.3,0,3.4C6.3,19.3,6.3,19.6,6.3,19.9z M13.5,13.6
		c0,0.8,0,1.6,0,2.4c0,0.1,0,0.1,0.1,0.2c0.3,0.2,0.6,0.3,0.8,0.5c0.1,0,0.1,0,0.2,0c0.2-0.1,0.3-0.2,0.5-0.3
		c1.3-0.7,2.5-1.4,3.8-2.1c0.1,0,0.1-0.1,0.1-0.2c0-0.3,0-0.5,0-0.8c0-0.1,0-0.1-0.1-0.1c-1.4-0.8-2.8-1.7-4.3-2.5
		c-0.1,0-0.1,0-0.2,0c-0.3,0.1-0.5,0.3-0.8,0.4c-0.1,0-0.1,0.1-0.1,0.2C13.5,12,13.5,12.8,13.5,13.6z M13.4,6.4c0,0.8,0,1.6,0,2.4
		c0,0.1,0,0.2,0.1,0.2c0.3,0.1,0.5,0.3,0.8,0.4c0.1,0,0.1,0,0.2,0c1.4-0.8,2.9-1.6,4.3-2.4c0.1,0,0.1-0.1,0.1-0.1c0-0.3,0-0.6,0-0.8
		c0-0.1,0-0.1-0.1-0.2c-1.4-0.8-2.8-1.7-4.3-2.5c-0.1,0-0.1,0-0.2,0c-0.3,0.1-0.5,0.3-0.8,0.4c-0.1,0-0.1,0.1-0.1,0.2
		C13.4,4.8,13.4,5.6,13.4,6.4z M6.5,17.3c0,0.8,0,1.6,0,2.4c0,0.1,0,0.1,0.1,0.2c0.3,0.1,0.5,0.3,0.8,0.4c0.1,0,0.1,0,0.2,0
		c1.4-0.8,2.9-1.6,4.3-2.4c0.1,0,0.1-0.1,0.1-0.1c0-0.3,0-0.6,0-0.8c0-0.1,0-0.1-0.1-0.2C10.4,16,9,15.1,7.6,14.3
		c-0.1,0-0.1,0-0.2,0c-0.3,0.2-0.5,0.3-0.8,0.4c-0.1,0-0.1,0.1-0.1,0.2C6.5,15.7,6.5,16.5,6.5,17.3z M6.2,17.4c0-0.8,0-1.6,0-2.4
		c0-0.1,0-0.1-0.1-0.2c-0.3-0.1-0.5-0.3-0.8-0.4c-0.1,0-0.1,0-0.2,0c-1.4,0.8-2.8,1.6-4.3,2.4c-0.1,0-0.1,0.1-0.1,0.1
		c0,0.3,0,0.6,0,0.8c0,0.1,0,0.1,0.1,0.1c1.4,0.8,2.9,1.7,4.3,2.6c0.1,0,0.1,0,0.2,0c0.3-0.1,0.5-0.3,0.8-0.4c0.1,0,0.1-0.1,0.1-0.2
		C6.2,19,6.2,18.2,6.2,17.4z M13.1,6.4c0-0.8,0-1.6,0-2.4c0-0.1,0-0.1-0.1-0.2c-0.3-0.1-0.5-0.3-0.8-0.4c-0.1,0-0.1,0-0.2,0
		C10.6,4.1,9.2,5,7.8,5.8c-0.1,0-0.1,0.1-0.1,0.2c0,0.3,0,0.5,0,0.8c0,0.1,0,0.1,0.1,0.2c1.4,0.8,2.8,1.7,4.3,2.5c0.1,0,0.1,0,0.2,0
		C12.5,9.3,12.7,9.1,13,9c0.1,0,0.1-0.1,0.1-0.2C13.1,8,13.1,7.2,13.1,6.4z M13.2,13.7c0-0.8,0-1.6,0-2.4c0-0.1,0-0.1-0.1-0.2
		c-0.3-0.1-0.5-0.3-0.8-0.4c-0.1,0-0.1,0-0.2,0c-1.4,0.8-2.9,1.6-4.3,2.4c-0.1,0-0.1,0.1-0.1,0.1c0,0.3,0,0.6,0,0.8
		c0,0.1,0,0.1,0.1,0.1c1.4,0.8,2.9,1.7,4.3,2.6c0.1,0,0.1,0,0.2,0c0.3-0.1,0.5-0.3,0.8-0.4c0.1,0,0.1-0.1,0.1-0.2
		C13.2,15.3,13.2,14.5,13.2,13.7z M6.6,10c0,0.8,0,1.6,0,2.4c0,0.1,0,0.1,0.1,0.2c0.3,0.1,0.5,0.3,0.8,0.4c0.1,0,0.1,0,0.2,0
		c1.4-0.8,2.8-1.6,4.3-2.4c0.1,0,0.1-0.1,0.1-0.2c0-0.2,0-0.5,0-0.7c0-0.1,0-0.2-0.1-0.2c-0.6-0.3-1.2-0.7-1.8-1
		C9.2,8,8.4,7.5,7.6,7C7.5,7,7.4,7,7.4,7C7.1,7.1,6.9,7.3,6.7,7.4c-0.1,0-0.1,0.1-0.1,0.2C6.6,8.4,6.6,9.2,6.6,10z M7.1,13.8
		c0-0.1,0-0.1,0-0.2c-0.1,0-0.1,0.1-0.2,0.1C6.9,13.7,7,13.8,7.1,13.8z"/>
	<path class="st1" d="M13.2,4.1c0-0.3,0-0.5,0-0.8c0,0,0,0,0,0C13.2,3.6,13.2,3.9,13.2,4.1C13.2,4.1,13.2,4.1,13.2,4.1z"/>
	<path class="st2" d="M13.5,13.6c0-0.8,0-1.6,0-2.4c0-0.1,0-0.1,0.1-0.2c0.3-0.1,0.5-0.3,0.8-0.4c0.1,0,0.1,0,0.2,0
		c1.4,0.9,2.8,1.7,4.3,2.5c0.1,0,0.1,0.1,0.1,0.1c0,0.3,0,0.5,0,0.8c0,0.1,0,0.1-0.1,0.2c-1.3,0.7-2.5,1.4-3.8,2.1
		c-0.2,0.1-0.3,0.2-0.5,0.3c-0.1,0-0.1,0-0.2,0c-0.3-0.2-0.5-0.3-0.8-0.5c-0.1,0-0.1-0.1-0.1-0.2C13.5,15.3,13.5,14.4,13.5,13.6z"/>
	<path class="st3" d="M13.4,6.4c0-0.8,0-1.6,0-2.4c0-0.1,0-0.1,0.1-0.2c0.3-0.1,0.5-0.3,0.8-0.4c0.1,0,0.1,0,0.2,0
		c1.4,0.9,2.8,1.7,4.3,2.5c0.1,0,0.1,0.1,0.1,0.2c0,0.3,0,0.6,0,0.8c0,0.1,0,0.1-0.1,0.1c-1.4,0.8-2.9,1.6-4.3,2.4
		c-0.1,0-0.1,0-0.2,0C14,9.3,13.8,9.1,13.5,9c-0.1,0-0.1-0.1-0.1-0.2C13.4,8,13.4,7.2,13.4,6.4z"/>
	<path class="st3" d="M6.5,17.3c0-0.8,0-1.6,0-2.4c0-0.1,0-0.1,0.1-0.2c0.3-0.1,0.5-0.3,0.8-0.4c0.1,0,0.1,0,0.2,0
		c1.4,0.8,2.8,1.7,4.3,2.5c0.1,0,0.1,0.1,0.1,0.2c0,0.3,0,0.6,0,0.8c0,0.1,0,0.1-0.1,0.1c-1.4,0.8-2.9,1.6-4.3,2.4
		c-0.1,0-0.1,0-0.2,0c-0.3-0.2-0.5-0.3-0.8-0.4c-0.1,0-0.1-0.1-0.1-0.2C6.5,19,6.5,18.1,6.5,17.3z"/>
	<path class="st3" d="M6.2,17.4c0,0.8,0,1.6,0,2.4c0,0.1,0,0.1-0.1,0.2c-0.3,0.1-0.5,0.3-0.8,0.4c-0.1,0-0.1,0-0.2,0
		c-1.4-0.9-2.9-1.7-4.3-2.6c-0.1,0-0.1-0.1-0.1-0.1c0-0.3,0-0.6,0-0.8c0-0.1,0-0.1,0.1-0.1c1.4-0.8,2.8-1.6,4.3-2.4
		c0.1,0,0.1,0,0.2,0c0.3,0.1,0.5,0.3,0.8,0.4c0.1,0,0.1,0.1,0.1,0.2C6.2,15.8,6.2,16.6,6.2,17.4z"/>
	<path class="st3" d="M13.1,6.4c0,0.8,0,1.6,0,2.4c0,0.1,0,0.1-0.1,0.2c-0.3,0.1-0.5,0.3-0.8,0.4c-0.1,0-0.1,0-0.2,0
		c-1.4-0.9-2.8-1.7-4.3-2.5c-0.1,0-0.1-0.1-0.1-0.2c0-0.3,0-0.5,0-0.8c0-0.1,0-0.1,0.1-0.2C9.2,5,10.6,4.1,12,3.3c0.1,0,0.1,0,0.2,0
		c0.3,0.2,0.5,0.3,0.8,0.4c0.1,0,0.1,0.1,0.1,0.2C13.1,4.8,13.1,5.6,13.1,6.4z"/>
	<path class="st3" d="M13.2,13.7c0,0.8,0,1.6,0,2.4c0,0.1,0,0.1-0.1,0.2c-0.3,0.1-0.5,0.3-0.8,0.4c-0.1,0-0.1,0-0.2,0
		c-1.4-0.9-2.9-1.7-4.3-2.6c-0.1,0-0.1-0.1-0.1-0.1c0-0.3,0-0.6,0-0.8c0-0.1,0-0.1,0.1-0.1c1.4-0.8,2.9-1.6,4.3-2.4
		c0.1,0,0.1,0,0.2,0c0.3,0.2,0.5,0.3,0.8,0.4c0.1,0,0.1,0.1,0.1,0.2C13.2,12.1,13.2,12.9,13.2,13.7z"/>
	<path class="st4" d="M6.6,10c0-0.8,0-1.6,0-2.4c0-0.1,0-0.1,0.1-0.2C6.9,7.3,7.1,7.1,7.4,7c0.1,0,0.1,0,0.2,0C8.4,7.5,9.2,8,10,8.5
		c0.6,0.3,1.2,0.7,1.8,1C11.9,9.6,12,9.6,12,9.7c0,0.2,0,0.5,0,0.7c0,0.1,0,0.1-0.1,0.2c-1.4,0.8-2.8,1.6-4.3,2.4
		c-0.1,0-0.1,0-0.2,0c-0.3-0.2-0.5-0.3-0.8-0.4c-0.1,0-0.1-0.1-0.1-0.2C6.6,11.6,6.6,10.8,6.6,10z"/>
	<path class="st5" d="M6.4,15.7c0,1.1,0,2.3,0,3.4c0,0,0,0,0,0C6.3,17.9,6.3,16.8,6.4,15.7C6.3,15.7,6.3,15.7,6.4,15.7L6.4,15.7z"/>
	<path class="st6" d="M13.3,6.7c0,0.4,0,0.8,0,1.2c0,0,0,0,0,0C13.2,7.5,13.2,7.1,13.3,6.7C13.2,6.7,13.3,6.7,13.3,6.7z"/>
	<path class="st7" d="M13.3,6.7C13.3,6.7,13.2,6.7,13.3,6.7c-0.1-0.3-0.1-0.7,0-1c0,0,0,0,0,0C13.3,6,13.3,6.4,13.3,6.7z"/>
	<path class="st6" d="M13.3,5.7C13.2,5.7,13.2,5.7,13.3,5.7c0-0.3,0-0.5,0-0.8l0,0l0,0C13.2,5.2,13.3,5.4,13.3,5.7z"/>
	<path class="st8" d="M13.2,4.9L13.2,4.9L13.2,4.9c0-0.3,0-0.5,0-0.8c0,0,0,0,0,0C13.2,4.4,13.2,4.6,13.2,4.9z"/>
	<path class="st8" d="M13.2,7.9C13.3,7.9,13.3,7.9,13.2,7.9c0,0.3,0,0.5,0,0.8c0,0,0,0,0,0C13.2,8.4,13.2,8.2,13.2,7.9z"/>
	<path class="st9" d="M6.3,14.9c0-0.3,0-0.5,0-0.8c0,0,0,0,0,0C6.4,14.4,6.4,14.6,6.3,14.9C6.3,14.9,6.3,14.9,6.3,14.9z"/>
	<path class="st10" d="M6.3,14.9C6.3,14.9,6.3,14.9,6.3,14.9c0,0.3,0,0.5,0,0.8c0,0,0,0,0,0s0,0,0,0C6.3,15.4,6.3,15.1,6.3,14.9z"/>
	<path class="st10" d="M6.3,19.1C6.3,19.1,6.3,19.1,6.3,19.1c0,0.3,0,0.5,0,0.8c0,0,0,0,0,0C6.3,19.6,6.3,19.3,6.3,19.1z"/>
	<path class="st9" d="M6.3,19.9C6.3,19.9,6.3,19.9,6.3,19.9c0,0.3,0,0.5,0,0.8c0,0,0,0,0,0C6.3,20.4,6.3,20.1,6.3,19.9z"/>
	<path class="st1" d="M13.2,8.7C13.3,8.7,13.3,8.7,13.2,8.7c0,0.1,0,0.3,0,0.4c0,0,0,0,0,0l0,0C13.2,8.9,13.2,8.8,13.2,8.7z"/>
</g>
<g>
	<path class="st2" d="M23.7,7h5l-0.2,1.8h-3.1l-0.3,2.1h3.1L28,12.7h-3.1l-0.6,4.5h-1.9L23.7,7z"/>
	<path class="st11" d="M35.7,9.7h1.9l-1.1,7.6h-1.8l0.1-0.8c-0.4,0.4-0.8,0.6-1.1,0.8c-0.4,0.1-0.7,0.2-1.2,0.2
		c-1,0-1.8-0.4-2.4-1.1c-0.6-0.7-0.9-1.6-0.9-2.6c0-0.7,0.2-1.5,0.6-2.1c0.4-0.7,0.9-1.2,1.5-1.6c0.6-0.4,1.3-0.6,2-0.6
		c0.5,0,0.9,0.1,1.3,0.3c0.4,0.2,0.7,0.5,1,0.9L35.7,9.7z M32.9,15.8c0.5,0,0.9-0.1,1.2-0.3c0.3-0.2,0.6-0.5,0.9-1
		c0.2-0.4,0.3-0.9,0.3-1.3c0-0.6-0.2-1.1-0.5-1.5c-0.3-0.4-0.8-0.5-1.4-0.5c-0.7,0-1.2,0.2-1.7,0.7C31.3,12.4,31,13,31,13.8
		c0,0.6,0.2,1.1,0.5,1.4C31.9,15.6,32.4,15.8,32.9,15.8z"/>
	<path class="st11" d="M40.4,17.2h-1.9l1.4-10.5h1.8l-0.5,3.7c0.4-0.4,0.8-0.6,1.1-0.8c0.3-0.1,0.7-0.2,1.2-0.2c1,0,1.8,0.4,2.4,1.1
		c0.6,0.7,0.9,1.6,0.9,2.6c0,0.7-0.2,1.5-0.6,2.1s-0.9,1.2-1.5,1.6c-0.6,0.4-1.3,0.6-2,0.6c-0.5,0-0.9-0.1-1.3-0.3
		c-0.4-0.2-0.7-0.5-1-0.9L40.4,17.2z M43.1,11.1c-0.5,0-0.8,0.1-1.2,0.3c-0.3,0.2-0.6,0.5-0.8,1s-0.3,0.9-0.3,1.3
		c0,0.6,0.2,1.1,0.5,1.4c0.3,0.4,0.8,0.5,1.4,0.5c0.7,0,1.2-0.2,1.7-0.7s0.7-1.1,0.7-1.9c0-0.6-0.2-1.1-0.5-1.4
		C44.1,11.3,43.7,11.1,43.1,11.1z"/>
	<path class="st11" d="M48.7,9.7h1.8l-1,7.6h-1.9L48.7,9.7z M50,6.6c0.3,0,0.6,0.1,0.8,0.3c0.2,0.2,0.3,0.5,0.3,0.8
		c0,0.3-0.1,0.6-0.3,0.8c-0.2,0.2-0.5,0.3-0.8,0.3c-0.3,0-0.6-0.1-0.8-0.3C49,8.3,48.9,8,48.9,7.7c0-0.3,0.1-0.6,0.3-0.8
		C49.4,6.7,49.7,6.6,50,6.6z"/>
	<path class="st11" d="M58,9.7h1.9l-1.1,7.6H57l0.1-0.8c-0.4,0.4-0.8,0.6-1.1,0.8s-0.7,0.2-1.2,0.2c-1,0-1.8-0.4-2.4-1.1
		c-0.6-0.7-0.9-1.6-0.9-2.6c0-0.7,0.2-1.5,0.6-2.1s0.9-1.2,1.5-1.6s1.3-0.6,2-0.6c0.5,0,0.9,0.1,1.3,0.3c0.4,0.2,0.7,0.5,1,0.9
		L58,9.7z M55.2,15.8c0.5,0,0.9-0.1,1.2-0.3c0.3-0.2,0.6-0.5,0.9-1c0.2-0.4,0.3-0.9,0.3-1.3c0-0.6-0.2-1.1-0.5-1.5s-0.8-0.5-1.4-0.5
		c-0.7,0-1.2,0.2-1.7,0.7c-0.5,0.5-0.7,1.1-0.7,1.9c0,0.6,0.2,1.1,0.5,1.4C54.2,15.6,54.6,15.8,55.2,15.8z"/>
	<path class="st2" d="M67.6,8.4l-1.4,1.2c-0.6-0.7-1.1-1.1-1.6-1.1c-0.2,0-0.5,0.1-0.6,0.2c-0.2,0.1-0.2,0.3-0.2,0.5
		c0,0.2,0.1,0.4,0.2,0.6c0.1,0.2,0.6,0.7,1.4,1.5c0.4,0.4,0.7,0.7,0.8,0.9c0.3,0.4,0.5,0.8,0.7,1.1s0.2,0.7,0.2,1.1
		c0,0.8-0.3,1.5-0.9,2.1c-0.6,0.6-1.3,0.8-2.3,0.8c-1.4,0-2.5-0.7-3.4-2l1.5-1.2c0.6,0.9,1.2,1.4,1.9,1.4c0.3,0,0.6-0.1,0.8-0.3
		c0.2-0.2,0.3-0.5,0.3-0.8c0-0.2-0.1-0.5-0.2-0.7c-0.1-0.2-0.5-0.7-1.2-1.4c-0.7-0.7-1.1-1.3-1.3-1.6c-0.3-0.5-0.4-1-0.4-1.5
		c0-0.6,0.2-1.2,0.6-1.7c0.5-0.6,1.2-0.9,2.1-0.9C65.7,6.7,66.8,7.3,67.6,8.4z"/>
	<path class="st11" d="M74.8,9.7h1.9l-1.1,7.6h-1.8l0.1-0.8c-0.4,0.4-0.8,0.6-1.1,0.8s-0.7,0.2-1.2,0.2c-1,0-1.8-0.4-2.4-1.1
		c-0.6-0.7-0.9-1.6-0.9-2.6c0-0.7,0.2-1.5,0.6-2.1s0.9-1.2,1.5-1.6s1.3-0.6,2-0.6c0.5,0,0.9,0.1,1.3,0.3c0.4,0.2,0.7,0.5,1,0.9
		L74.8,9.7z M72,15.8c0.5,0,0.9-0.1,1.2-0.3c0.3-0.2,0.6-0.5,0.9-1c0.2-0.4,0.3-0.9,0.3-1.3c0-0.6-0.2-1.1-0.5-1.5s-0.8-0.5-1.4-0.5
		c-0.7,0-1.2,0.2-1.7,0.7c-0.5,0.5-0.7,1.1-0.7,1.9c0,0.6,0.2,1.1,0.5,1.4C71,15.6,71.5,15.8,72,15.8z"/>
	<path class="st11" d="M79.1,6.8h1.9l-0.4,2.8h1.2l-0.2,1.6h-1.2l-0.8,6h-1.9l0.8-6h-0.9l0.2-1.6h0.9L79.1,6.8z"/>
	<path class="st11" d="M86.4,9.5c0.7,0,1.3,0.2,1.8,0.5s1,0.8,1.3,1.3c0.3,0.6,0.5,1.2,0.5,1.9c0,1.2-0.4,2.2-1.3,3
		c-0.8,0.8-1.9,1.2-3.1,1.2c-1.1,0-1.9-0.3-2.6-1s-1-1.5-1-2.6c0-1.3,0.4-2.3,1.3-3.2C84.2,9.9,85.2,9.5,86.4,9.5z M86.3,11.2
		c-0.8,0-1.3,0.3-1.8,0.8c-0.4,0.5-0.6,1.1-0.6,1.8c0,0.6,0.2,1,0.5,1.4c0.3,0.3,0.8,0.5,1.3,0.5c0.8,0,1.4-0.3,1.8-0.8
		c0.4-0.5,0.6-1.1,0.6-1.8c0-0.6-0.2-1-0.5-1.4C87.3,11.4,86.8,11.2,86.3,11.2z"/>
</g>
</svg>
