<?xml version="1.0" encoding="utf-8"?>
<!-- Generator: Adobe Illustrator 25.4.1, SVG Export Plug-In . SVG Version: 6.00 Build 0)  -->
<svg version="1.1" id="Layer_1" xmlns="http://www.w3.org/2000/svg" xmlns:xlink="http://www.w3.org/1999/xlink" x="0px" y="0px"
	 viewBox="0 0 98.7 27" style="enable-background:new 0 0 98.7 27;" xml:space="preserve">
<style type="text/css">
	.st0{fill:#030204;}
	.st1{fill:#E7E7E7;}
	.st2{fill:#08B7FD;}
	.st3{fill:#E86DFE;}
	.st4{fill:#E86DFD;}
	.st5{fill:#3F3F3F;}
	.st6{fill:#ACACAC;}
	.st7{fill:#6D6D6D;}
	.st8{fill:#CACACA;}
	.st9{fill:#151515;}
	.st10{fill:#2B2B2B;}
	.st11{fill:#FFFFFF;}
	.st12{font-family:'CenturyGothic-BoldItalic';}
	.st13{font-size:14.2784px;}
</style>
<g>
	<path class="st0" d="M19.7,13.7c0,0.1-0.1,0.2-0.2,0.2c-1.5,0.9-3,1.8-4.5,2.7c-0.3,0.2-0.7,0.4-1,0.6c-0.1,0.1-0.2,0.1-0.3,0
		c-0.2-0.1-0.3-0.1-0.5,0c-0.2,0.2-0.3,0.1-0.5,0c0,0,0,0,0,0c0,0.3-0.1,0.4-0.4,0.5c-1.1,0.7-2.3,1.3-3.4,2
		c-0.6,0.4-1.3,0.8-1.9,1.1c-0.1,0-0.1,0.1-0.2,0c-0.1-0.1-0.3-0.2-0.4-0.2c-0.1,0-0.2,0.1-0.3,0.2C6,21,6,21,6,21c0,0-0.1,0-0.1,0
		c-0.1-0.1-0.2-0.1-0.2-0.2C4.1,19.9,2.5,19,1,18.1c-0.3-0.2-0.7-0.4-1-0.6c0-0.1,0-0.2,0-0.3C0,17.1,0.1,17,0.2,17
		c1.5-0.9,3-1.8,4.5-2.7c0.3-0.2,0.6-0.4,1-0.6c0.1-0.1,0.2-0.1,0.3,0c0.1,0.1,0.2,0.1,0.3,0.1c0.1,0,0.2-0.1,0.3-0.2
		c0.1,0,0.1-0.1,0.2-0.1c-0.1,0-0.2-0.1-0.2-0.1c-0.1,0-0.1-0.1-0.1-0.2c0-0.8,0-1.5,0-2.3c0-1.4,0-2.8,0-4.3c0-0.1,0-0.2,0.1-0.3
		c0.1,0,0.2-0.2,0.3-0.1c0,0,0-0.1,0-0.1C6.9,6.1,7,6,7,6c1.2-0.7,2.4-1.4,3.5-2.1c0.7-0.4,1.3-0.8,2-1.2c0.1-0.1,0.2-0.1,0.3,0
		c0.3,0.1,0.4,0.2,0.4,0.5c0,0.3,0,0.5,0,0.8c0,0.3,0,0.5,0,0.8c0,0.3,0,0.5,0,0.8c0,0.3,0,0.7,0,1c0,0.4,0,0.8,0,1.2
		c0,0.3,0,0.5,0,0.8c0,0.1,0,0.3,0,0.4c0,0.2,0,0.4,0,0.6c0,0.1,0,0.2-0.1,0.2C13,9.9,13,9.9,12.9,10c0.3,0.2,0.5,0.2,0.7,0
		c-0.1,0-0.2-0.1-0.2-0.1c-0.1,0-0.1-0.1-0.1-0.2c0-0.2,0-0.4,0-0.6c0-0.1,0-0.3,0-0.4c0-0.3,0-0.5,0-0.8c0-0.4,0-0.8,0-1.2
		c0-0.3,0-0.7,0-1c0-0.3,0-0.5,0-0.8c0-0.3,0-0.5,0-0.8c0-0.3,0-0.5,0-0.8c-0.1-0.3,0.1-0.5,0.3-0.6c0,0,0.1,0,0.1,0
		c0,0,0.1,0,0.1,0c0,0,0,0,0,0c1.1,0.6,2.2,1.3,3.3,1.9c0.8,0.5,1.6,1,2.5,1.4c0,0,0.1,0,0.1,0.1c0,0.1,0,0.3,0,0.4
		c0,0.1-0.1,0.1-0.1,0.1c-0.5,0.3-0.9,0.6-1.4,0.8c-0.9,0.5-1.8,1.1-2.8,1.6c-0.5,0.3-0.9,0.5-1.4,0.8c0,0,0.1,0,0.1,0.1
		c0.5,0.3,0.9,0.5,1.4,0.8c1.3,0.8,2.7,1.6,4,2.4c0.1,0.1,0.2,0.1,0.3,0.2C19.7,13.5,19.7,13.6,19.7,13.7z M6.3,19.8
		c0,0.3,0,0.5,0,0.8c0,0,0,0,0,0C6.4,20.3,6.4,20,6.3,19.8c0-0.3,0-0.5,0-0.8c0-1.1,0-2.3,0-3.4c0-0.3,0-0.5,0-0.8
		c0-0.3,0-0.5,0-0.8c0,0,0,0,0,0c0,0.3,0,0.5,0,0.8c0,0.3,0,0.5,0,0.8c0,1.1,0,2.3,0,3.4C6.3,19.2,6.3,19.5,6.3,19.8z M13.5,13.5
		c0,0.8,0,1.6,0,2.4c0,0.1,0,0.1,0.1,0.2c0.3,0.2,0.6,0.3,0.8,0.5c0.1,0,0.1,0,0.2,0c0.2-0.1,0.3-0.2,0.5-0.3
		c1.3-0.7,2.5-1.4,3.8-2.1c0.1,0,0.1-0.1,0.1-0.2c0-0.3,0-0.5,0-0.8c0-0.1,0-0.1-0.1-0.1c-1.4-0.8-2.8-1.7-4.3-2.5
		c-0.1,0-0.1,0-0.2,0c-0.3,0.1-0.5,0.3-0.8,0.4c-0.1,0-0.1,0.1-0.1,0.2C13.5,11.9,13.5,12.7,13.5,13.5z M13.4,6.3c0,0.8,0,1.6,0,2.4
		c0,0.1,0,0.2,0.1,0.2c0.3,0.1,0.5,0.3,0.8,0.4c0.1,0,0.1,0,0.2,0c1.4-0.8,2.9-1.6,4.3-2.4c0.1,0,0.1-0.1,0.1-0.1c0-0.3,0-0.6,0-0.8
		c0-0.1,0-0.1-0.1-0.2c-1.4-0.8-2.8-1.7-4.3-2.5c-0.1,0-0.1,0-0.2,0c-0.3,0.1-0.5,0.3-0.8,0.4c-0.1,0-0.1,0.1-0.1,0.2
		C13.4,4.7,13.4,5.5,13.4,6.3z M6.5,17.2c0,0.8,0,1.6,0,2.4c0,0.1,0,0.1,0.1,0.2c0.3,0.1,0.5,0.3,0.8,0.4c0.1,0,0.1,0,0.2,0
		c1.4-0.8,2.9-1.6,4.3-2.4c0.1,0,0.1-0.1,0.1-0.1c0-0.3,0-0.6,0-0.8c0-0.1,0-0.1-0.1-0.2C10.4,15.9,9,15,7.6,14.2
		c-0.1,0-0.1,0-0.2,0c-0.3,0.2-0.5,0.3-0.8,0.4c-0.1,0-0.1,0.1-0.1,0.2C6.5,15.6,6.5,16.4,6.5,17.2z M6.2,17.3c0-0.8,0-1.6,0-2.4
		c0-0.1,0-0.1-0.1-0.2c-0.3-0.1-0.5-0.3-0.8-0.4c-0.1,0-0.1,0-0.2,0c-1.4,0.8-2.8,1.6-4.3,2.4c-0.1,0-0.1,0.1-0.1,0.1
		c0,0.3,0,0.6,0,0.8c0,0.1,0,0.1,0.1,0.1c1.4,0.8,2.9,1.7,4.3,2.6c0.1,0,0.1,0,0.2,0c0.3-0.1,0.5-0.3,0.8-0.4c0.1,0,0.1-0.1,0.1-0.2
		C6.2,18.9,6.2,18.1,6.2,17.3z M13.1,6.3c0-0.8,0-1.6,0-2.4c0-0.1,0-0.1-0.1-0.2c-0.3-0.1-0.5-0.3-0.8-0.4c-0.1,0-0.1,0-0.2,0
		c-1.4,0.8-2.8,1.6-4.3,2.4c-0.1,0-0.1,0.1-0.1,0.2c0,0.3,0,0.5,0,0.8c0,0.1,0,0.1,0.1,0.2c1.4,0.8,2.8,1.7,4.3,2.5
		c0.1,0,0.1,0,0.2,0c0.3-0.1,0.5-0.3,0.8-0.4c0.1,0,0.1-0.1,0.1-0.2C13.1,7.9,13.1,7.1,13.1,6.3z M13.2,13.6c0-0.8,0-1.6,0-2.4
		c0-0.1,0-0.1-0.1-0.2c-0.3-0.1-0.5-0.3-0.8-0.4c-0.1,0-0.1,0-0.2,0c-1.4,0.8-2.9,1.6-4.3,2.4c-0.1,0-0.1,0.1-0.1,0.1
		c0,0.3,0,0.6,0,0.8c0,0.1,0,0.1,0.1,0.1c1.4,0.8,2.9,1.7,4.3,2.6c0.1,0,0.1,0,0.2,0c0.3-0.1,0.5-0.3,0.8-0.4c0.1,0,0.1-0.1,0.1-0.2
		C13.2,15.2,13.2,14.4,13.2,13.6z M6.6,9.9c0,0.8,0,1.6,0,2.4c0,0.1,0,0.1,0.1,0.2c0.3,0.1,0.5,0.3,0.8,0.4c0.1,0,0.1,0,0.2,0
		c1.4-0.8,2.8-1.6,4.3-2.4c0.1,0,0.1-0.1,0.1-0.2c0-0.2,0-0.5,0-0.7c0-0.1,0-0.2-0.1-0.2c-0.6-0.3-1.2-0.7-1.8-1
		c-0.8-0.5-1.7-1-2.5-1.5c-0.1,0-0.1,0-0.2,0C7.1,7.1,6.9,7.2,6.7,7.3c-0.1,0-0.1,0.1-0.1,0.2C6.6,8.3,6.6,9.1,6.6,9.9z M7.1,13.7
		c0-0.1,0-0.1,0-0.2c-0.1,0-0.1,0.1-0.2,0.1C6.9,13.7,7,13.7,7.1,13.7z"/>
	<path class="st1" d="M13.2,4c0-0.3,0-0.5,0-0.8c0,0,0,0,0,0C13.2,3.5,13.2,3.8,13.2,4C13.2,4,13.2,4,13.2,4z"/>
	<path class="st2" d="M13.5,13.5c0-0.8,0-1.6,0-2.4c0-0.1,0-0.1,0.1-0.2c0.3-0.1,0.5-0.3,0.8-0.4c0.1,0,0.1,0,0.2,0
		c1.4,0.9,2.8,1.7,4.3,2.5c0.1,0,0.1,0.1,0.1,0.1c0,0.3,0,0.5,0,0.8c0,0.1,0,0.1-0.1,0.2c-1.3,0.7-2.5,1.4-3.8,2.1
		c-0.2,0.1-0.3,0.2-0.5,0.3c-0.1,0-0.1,0-0.2,0c-0.3-0.2-0.5-0.3-0.8-0.5c-0.1,0-0.1-0.1-0.1-0.2C13.5,15.2,13.5,14.4,13.5,13.5z"/>
	<path class="st3" d="M13.4,6.3c0-0.8,0-1.6,0-2.4c0-0.1,0-0.1,0.1-0.2c0.3-0.1,0.5-0.3,0.8-0.4c0.1,0,0.1,0,0.2,0
		c1.4,0.9,2.8,1.7,4.3,2.5c0.1,0,0.1,0.1,0.1,0.2c0,0.3,0,0.6,0,0.8c0,0.1,0,0.1-0.1,0.1c-1.4,0.8-2.9,1.6-4.3,2.4
		c-0.1,0-0.1,0-0.2,0c-0.3-0.1-0.5-0.3-0.8-0.4c-0.1,0-0.1-0.1-0.1-0.2C13.4,7.9,13.4,7.1,13.4,6.3z"/>
	<path class="st3" d="M6.5,17.2c0-0.8,0-1.6,0-2.4c0-0.1,0-0.1,0.1-0.2c0.3-0.1,0.5-0.3,0.8-0.4c0.1,0,0.1,0,0.2,0
		c1.4,0.8,2.8,1.7,4.3,2.5c0.1,0,0.1,0.1,0.1,0.2c0,0.3,0,0.6,0,0.8c0,0.1,0,0.1-0.1,0.1c-1.4,0.8-2.9,1.6-4.3,2.4
		c-0.1,0-0.1,0-0.2,0c-0.3-0.2-0.5-0.3-0.8-0.4c-0.1,0-0.1-0.1-0.1-0.2C6.5,18.9,6.5,18.1,6.5,17.2z"/>
	<path class="st3" d="M6.2,17.3c0,0.8,0,1.6,0,2.4c0,0.1,0,0.1-0.1,0.2c-0.3,0.1-0.5,0.3-0.8,0.4c-0.1,0-0.1,0-0.2,0
		c-1.4-0.9-2.9-1.7-4.3-2.6c-0.1,0-0.1-0.1-0.1-0.1c0-0.3,0-0.6,0-0.8c0-0.1,0-0.1,0.1-0.1c1.4-0.8,2.8-1.6,4.3-2.4
		c0.1,0,0.1,0,0.2,0c0.3,0.1,0.5,0.3,0.8,0.4c0.1,0,0.1,0.1,0.1,0.2C6.2,15.7,6.2,16.5,6.2,17.3z"/>
	<path class="st3" d="M13.1,6.3c0,0.8,0,1.6,0,2.4c0,0.1,0,0.1-0.1,0.2c-0.3,0.1-0.5,0.3-0.8,0.4c-0.1,0-0.1,0-0.2,0
		c-1.4-0.9-2.8-1.7-4.3-2.5c-0.1,0-0.1-0.1-0.1-0.2c0-0.3,0-0.5,0-0.8c0-0.1,0-0.1,0.1-0.2c1.4-0.8,2.8-1.6,4.3-2.4
		c0.1,0,0.1,0,0.2,0c0.3,0.2,0.5,0.3,0.8,0.4c0.1,0,0.1,0.1,0.1,0.2C13.1,4.7,13.1,5.5,13.1,6.3z"/>
	<path class="st3" d="M13.2,13.6c0,0.8,0,1.6,0,2.4c0,0.1,0,0.1-0.1,0.2c-0.3,0.1-0.5,0.3-0.8,0.4c-0.1,0-0.1,0-0.2,0
		c-1.4-0.9-2.9-1.7-4.3-2.6c-0.1,0-0.1-0.1-0.1-0.1c0-0.3,0-0.6,0-0.8c0-0.1,0-0.1,0.1-0.1c1.4-0.8,2.9-1.6,4.3-2.4
		c0.1,0,0.1,0,0.2,0c0.3,0.2,0.5,0.3,0.8,0.4c0.1,0,0.1,0.1,0.1,0.2C13.2,12,13.2,12.8,13.2,13.6z"/>
	<path class="st4" d="M6.6,9.9c0-0.8,0-1.6,0-2.4c0-0.1,0-0.1,0.1-0.2c0.2-0.1,0.5-0.3,0.7-0.4c0.1,0,0.1,0,0.2,0
		c0.8,0.5,1.7,1,2.5,1.5c0.6,0.3,1.2,0.7,1.8,1C11.9,9.5,12,9.5,12,9.7c0,0.2,0,0.5,0,0.7c0,0.1,0,0.1-0.1,0.2
		C10.5,11.4,9,12.2,7.6,13c-0.1,0-0.1,0-0.2,0c-0.3-0.2-0.5-0.3-0.8-0.4c-0.1,0-0.1-0.1-0.1-0.2C6.6,11.6,6.6,10.8,6.6,9.9z"/>
	<path class="st5" d="M6.4,15.6c0,1.1,0,2.3,0,3.4c0,0,0,0,0,0C6.3,17.8,6.3,16.7,6.4,15.6C6.3,15.6,6.3,15.6,6.4,15.6L6.4,15.6z"/>
	<path class="st6" d="M13.3,6.6c0,0.4,0,0.8,0,1.2c0,0,0,0,0,0C13.2,7.4,13.2,7,13.3,6.6C13.2,6.6,13.3,6.6,13.3,6.6z"/>
	<path class="st7" d="M13.3,6.6C13.3,6.6,13.2,6.6,13.3,6.6c-0.1-0.3-0.1-0.7,0-1c0,0,0,0,0,0C13.3,5.9,13.3,6.3,13.3,6.6z"/>
	<path class="st6" d="M13.3,5.6C13.2,5.6,13.2,5.6,13.3,5.6c0-0.3,0-0.5,0-0.8l0,0l0,0C13.2,5.1,13.3,5.3,13.3,5.6z"/>
	<path class="st8" d="M13.2,4.8L13.2,4.8L13.2,4.8c0-0.3,0-0.5,0-0.8c0,0,0,0,0,0C13.2,4.3,13.2,4.6,13.2,4.8z"/>
	<path class="st8" d="M13.2,7.8C13.3,7.8,13.3,7.8,13.2,7.8c0,0.3,0,0.5,0,0.8c0,0,0,0,0,0C13.2,8.3,13.2,8.1,13.2,7.8z"/>
	<path class="st9" d="M6.3,14.8c0-0.3,0-0.5,0-0.8c0,0,0,0,0,0C6.4,14.3,6.4,14.5,6.3,14.8C6.3,14.8,6.3,14.8,6.3,14.8z"/>
	<path class="st10" d="M6.3,14.8C6.3,14.8,6.3,14.8,6.3,14.8c0,0.3,0,0.5,0,0.8c0,0,0,0,0,0s0,0,0,0C6.3,15.3,6.3,15,6.3,14.8z"/>
	<path class="st10" d="M6.3,19C6.3,19,6.3,19,6.3,19c0,0.3,0,0.5,0,0.8c0,0,0,0,0,0C6.3,19.5,6.3,19.2,6.3,19z"/>
	<path class="st9" d="M6.3,19.8C6.3,19.8,6.3,19.8,6.3,19.8c0,0.3,0,0.5,0,0.8c0,0,0,0,0,0C6.3,20.3,6.3,20,6.3,19.8z"/>
	<path class="st1" d="M13.2,8.6C13.3,8.6,13.3,8.6,13.2,8.6c0,0.1,0,0.3,0,0.4c0,0,0,0,0,0l0,0C13.2,8.9,13.2,8.7,13.2,8.6z"/>
</g>
<text transform="matrix(1 0 0 1 21.9339 16.9102)" class="st11 st12 st13">FabianSato</text>
</svg>
